<svg width="224" height="37" viewBox="0 0 224 37" fill="none" xmlns="http://www.w3.org/2000/svg">
<path d="M3.984 24.224H4.632C4.984 24.224 5.224 24.16 5.352 24.032C5.496 23.888 5.568 23.664 5.568 23.36V12.272H3.36C3.04 12.272 2.808 12.344 2.664 12.488C2.52 12.616 2.448 12.832 2.448 13.136V13.904H0.552V10.496H13.104V13.904H11.208V13.136C11.208 12.816 11.136 12.592 10.992 12.464C10.864 12.336 10.632 12.272 10.296 12.272H8.112V23.36C8.112 23.664 8.176 23.888 8.304 24.032C8.448 24.16 8.696 24.224 9.048 24.224H9.696V26H3.984V24.224ZM14.1045 24.224H14.7045C15.0245 24.224 15.2485 24.16 15.3765 24.032C15.5205 23.888 15.5925 23.656 15.5925 23.336V12.776C15.5925 12.472 15.5205 12.248 15.3765 12.104C15.2485 11.96 15.0245 11.888 14.7045 11.888H14.2245V10.112H17.9205V15.68C18.4965 15.104 19.0805 14.704 19.6725 14.48C20.2805 14.24 21.0405 14.12 21.9525 14.12C23.2005 14.12 24.1365 14.464 24.7605 15.152C25.4005 15.84 25.7205 16.824 25.7205 18.104V23.336C25.7205 23.656 25.7845 23.888 25.9125 24.032C26.0565 24.16 26.2805 24.224 26.5845 24.224H27.2565V26H23.1045V18.128C23.1045 17.328 22.9285 16.744 22.5765 16.376C22.2245 16.008 21.6885 15.824 20.9685 15.824C20.1525 15.824 19.4805 16.064 18.9525 16.544C18.4245 17.008 18.1605 17.656 18.1605 18.488V23.336C18.1605 23.656 18.2165 23.888 18.3285 24.032C18.4565 24.16 18.6645 24.224 18.9525 24.224H19.6005V26H14.1045V24.224ZM34.6129 26.36C32.7889 26.36 31.3249 25.856 30.2209 24.848C29.1329 23.824 28.5889 22.336 28.5889 20.384C28.5889 18.304 29.0929 16.744 30.1009 15.704C31.1249 14.648 32.5729 14.12 34.4449 14.12C36.2529 14.12 37.6209 14.632 38.5489 15.656C39.4769 16.68 39.9409 18.064 39.9409 19.808V20.912H31.1329C31.1329 22.208 31.4449 23.168 32.0689 23.792C32.7089 24.4 33.5649 24.704 34.6369 24.704C35.2449 24.704 35.7569 24.664 36.1729 24.584C36.5889 24.488 36.9649 24.336 37.3009 24.128V23.264H39.5329V24.944C38.8609 25.424 38.1329 25.776 37.3489 26C36.5809 26.24 35.6689 26.36 34.6129 26.36ZM37.4689 19.352C37.4689 17.016 36.4529 15.848 34.4209 15.848C33.3489 15.848 32.5329 16.16 31.9729 16.784C31.4129 17.408 31.1329 18.264 31.1329 19.352H37.4689ZM49.917 24.224H50.613C50.933 24.224 51.157 24.16 51.285 24.032C51.429 23.888 51.501 23.664 51.501 23.36V13.112C51.501 12.808 51.429 12.592 51.285 12.464C51.157 12.32 50.933 12.248 50.613 12.248H49.917V10.472H53.493L60.813 21.824V13.112C60.813 12.808 60.741 12.592 60.597 12.464C60.453 12.32 60.229 12.248 59.925 12.248H59.205V10.472H64.917V12.248H64.197C63.893 12.248 63.669 12.32 63.525 12.464C63.397 12.592 63.333 12.808 63.333 13.112V26H61.341L54.021 14.672V23.36C54.021 23.664 54.093 23.888 54.237 24.032C54.381 24.16 54.605 24.224 54.909 24.224H55.605V26H49.917V24.224ZM71.3366 26.36C69.3846 26.36 67.9126 25.824 66.9206 24.752C65.9286 23.68 65.4326 22.184 65.4326 20.264C65.4326 18.328 65.9206 16.824 66.8966 15.752C67.8886 14.664 69.3686 14.12 71.3366 14.12C73.3046 14.12 74.7766 14.664 75.7526 15.752C76.7446 16.824 77.2406 18.328 77.2406 20.264C77.2406 22.184 76.7446 23.68 75.7526 24.752C74.7606 25.824 73.2886 26.36 71.3366 26.36ZM71.3366 24.56C72.4886 24.56 73.3446 24.208 73.9046 23.504C74.4646 22.8 74.7446 21.72 74.7446 20.264C74.7446 18.792 74.4646 17.704 73.9046 17C73.3446 16.28 72.4886 15.92 71.3366 15.92C70.1846 15.92 69.3286 16.28 68.7686 17C68.2246 17.704 67.9526 18.792 67.9526 20.264C67.9526 21.72 68.2246 22.8 68.7686 23.504C69.3286 24.208 70.1846 24.56 71.3366 24.56ZM84.7194 26.36C82.7674 26.36 81.2954 25.824 80.3034 24.752C79.3114 23.68 78.8154 22.184 78.8154 20.264C78.8154 18.328 79.3034 16.824 80.2794 15.752C81.2714 14.664 82.7514 14.12 84.7194 14.12C86.6874 14.12 88.1594 14.664 89.1354 15.752C90.1274 16.824 90.6234 18.328 90.6234 20.264C90.6234 22.184 90.1274 23.68 89.1354 24.752C88.1434 25.824 86.6714 26.36 84.7194 26.36ZM84.7194 24.56C85.8714 24.56 86.7274 24.208 87.2874 23.504C87.8474 22.8 88.1274 21.72 88.1274 20.264C88.1274 18.792 87.8474 17.704 87.2874 17C86.7274 16.28 85.8714 15.92 84.7194 15.92C83.5674 15.92 82.7114 16.28 82.1514 17C81.6074 17.704 81.3354 18.792 81.3354 20.264C81.3354 21.72 81.6074 22.8 82.1514 23.504C82.7114 24.208 83.5674 24.56 84.7194 24.56ZM96.8867 26.36C95.3027 26.36 94.0627 25.848 93.1667 24.824C92.2867 23.8 91.8467 22.336 91.8467 20.432C91.8467 18.432 92.2867 16.88 93.1667 15.776C94.0467 14.672 95.3187 14.12 96.9827 14.12C97.9587 14.12 98.7347 14.24 99.3107 14.48C99.9027 14.72 100.391 15.12 100.775 15.68V12.92C100.775 12.536 100.711 12.264 100.583 12.104C100.455 11.944 100.207 11.864 99.8387 11.864H99.4307V10.112H103.247V23.432C103.247 23.784 103.303 24.032 103.415 24.176C103.527 24.304 103.735 24.368 104.039 24.368H104.519V26H101.303L101.087 24.32C100.607 25.04 100.039 25.56 99.3827 25.88C98.7267 26.2 97.8947 26.36 96.8867 26.36ZM97.4627 24.488C98.4867 24.488 99.2867 24.16 99.8627 23.504C100.439 22.832 100.727 21.936 100.727 20.816V19.592C100.727 18.424 100.447 17.528 99.8867 16.904C99.3427 16.28 98.5667 15.968 97.5587 15.968C96.4227 15.968 95.5987 16.32 95.0867 17.024C94.5907 17.728 94.3427 18.856 94.3427 20.408C94.3427 21.88 94.5827 22.928 95.0627 23.552C95.5427 24.176 96.3427 24.488 97.4627 24.488ZM105.862 24.224H106.558C106.878 24.224 107.102 24.152 107.23 24.008C107.374 23.864 107.446 23.632 107.446 23.312V12.776C107.446 12.472 107.374 12.256 107.23 12.128C107.102 11.984 106.878 11.912 106.558 11.912H105.862V10.112H110.014V23.336C110.014 23.64 110.086 23.864 110.23 24.008C110.374 24.152 110.598 24.224 110.902 24.224H111.598V26H105.862V24.224ZM118.964 26.36C117.14 26.36 115.676 25.856 114.572 24.848C113.484 23.824 112.94 22.336 112.94 20.384C112.94 18.304 113.444 16.744 114.452 15.704C115.476 14.648 116.924 14.12 118.796 14.12C120.604 14.12 121.972 14.632 122.9 15.656C123.828 16.68 124.292 18.064 124.292 19.808V20.912H115.484C115.484 22.208 115.796 23.168 116.42 23.792C117.06 24.4 117.916 24.704 118.988 24.704C119.596 24.704 120.108 24.664 120.524 24.584C120.94 24.488 121.316 24.336 121.652 24.128V23.264H123.884V24.944C123.212 25.424 122.484 25.776 121.7 26C120.932 26.24 120.02 26.36 118.964 26.36ZM121.82 19.352C121.82 17.016 120.804 15.848 118.772 15.848C117.7 15.848 116.884 16.16 116.324 16.784C115.764 17.408 115.484 18.264 115.484 19.352H121.82ZM134.269 24.224H134.965C135.285 24.224 135.509 24.16 135.637 24.032C135.781 23.888 135.853 23.664 135.853 23.36V13.112C135.853 12.808 135.781 12.592 135.637 12.464C135.509 12.32 135.285 12.248 134.965 12.248H134.269V10.472H137.845L145.165 21.824V13.112C145.165 12.808 145.093 12.592 144.949 12.464C144.805 12.32 144.581 12.248 144.277 12.248H143.557V10.472H149.269V12.248H148.549C148.245 12.248 148.021 12.32 147.877 12.464C147.749 12.592 147.685 12.808 147.685 13.112V26H145.693L138.373 14.672V23.36C138.373 23.664 138.445 23.888 138.589 24.032C138.733 24.16 138.957 24.224 139.261 24.224H139.957V26H134.269V24.224ZM155.688 26.36C153.736 26.36 152.264 25.824 151.272 24.752C150.28 23.68 149.784 22.184 149.784 20.264C149.784 18.328 150.272 16.824 151.248 15.752C152.24 14.664 153.72 14.12 155.688 14.12C157.656 14.12 159.128 14.664 160.104 15.752C161.096 16.824 161.592 18.328 161.592 20.264C161.592 22.184 161.096 23.68 160.104 24.752C159.112 25.824 157.64 26.36 155.688 26.36ZM155.688 24.56C156.84 24.56 157.696 24.208 158.256 23.504C158.816 22.8 159.096 21.72 159.096 20.264C159.096 18.792 158.816 17.704 158.256 17C157.696 16.28 156.84 15.92 155.688 15.92C154.536 15.92 153.68 16.28 153.12 17C152.576 17.704 152.304 18.792 152.304 20.264C152.304 21.72 152.576 22.8 153.12 23.504C153.68 24.208 154.536 24.56 155.688 24.56ZM169.071 26.36C167.119 26.36 165.647 25.824 164.655 24.752C163.663 23.68 163.167 22.184 163.167 20.264C163.167 18.328 163.655 16.824 164.631 15.752C165.623 14.664 167.103 14.12 169.071 14.12C171.039 14.12 172.511 14.664 173.487 15.752C174.479 16.824 174.975 18.328 174.975 20.264C174.975 22.184 174.479 23.68 173.487 24.752C172.495 25.824 171.023 26.36 169.071 26.36ZM169.071 24.56C170.223 24.56 171.079 24.208 171.639 23.504C172.199 22.8 172.479 21.72 172.479 20.264C172.479 18.792 172.199 17.704 171.639 17C171.079 16.28 170.223 15.92 169.071 15.92C167.919 15.92 167.063 16.28 166.503 17C165.959 17.704 165.687 18.792 165.687 20.264C165.687 21.72 165.959 22.8 166.503 23.504C167.063 24.208 167.919 24.56 169.071 24.56ZM175.94 24.296H176.588C176.908 24.296 177.124 24.24 177.236 24.128C177.364 24 177.428 23.784 177.428 23.48V12.584C177.428 12.28 177.372 12.072 177.26 11.96C177.148 11.832 176.94 11.768 176.636 11.768H176.084V10.112H181.244V11.768H180.572C180.284 11.768 180.084 11.832 179.972 11.96C179.86 12.072 179.804 12.28 179.804 12.584V19.64L183.692 16.16H182.516V14.48H187.988V16.16H186.884C186.628 16.16 186.436 16.192 186.308 16.256C186.18 16.32 186.004 16.448 185.78 16.64L183.404 18.728L186.308 23.648C186.468 23.904 186.62 24.08 186.764 24.176C186.924 24.256 187.164 24.296 187.484 24.296H188.492V26H185.276L181.724 20.12L179.804 21.824V23.48C179.804 23.784 179.86 24 179.972 24.128C180.1 24.24 180.324 24.296 180.644 24.296H181.388V26H175.94V24.296Z" fill="white"/>
<path d="M222 9L210 10.41V12H222V13H210V18H222C222 19.81 221.43 21.46 220.32 22.95C219.21 24.44 217.77 25.53 216 26.25V28H208V26.25C206.24 25.53 204.79 24.43 203.68 22.95C202.57 21.47 202 19.81 202 18H205V10L222 8V9ZM206 10.88V12H207V10.78L206 10.88ZM206 13V18H207V13H206ZM209 18V13H208V18H209ZM209 12V10.55L208 10.64V12H209Z" fill="white"/>
</svg>
